:FULLY-SPECIFIED
:FORCE-ALL-JOINTS-BE-3DOF
:DEGREES
275
root 9.97403 16.7556 3.46383 6.43503 -2.11286 2.01549
lfemur -18.7989 5.95402 -28.6463
ltibia 29.4059 -0 0
lfoot -17.4669 5.34339 0.119772
ltoes -2.38009 0 0
rfemur -22.1667 0.0547808 16.5512
rtibia 43.8998 -0 0
rfoot -12.7532 -8.65913 1.02673
rtoes -22.1624 0 0
lowerback -5.40178 -1.74998 -3.39932
upperback -0.930255 -2.17184 1.97439
thorax 2.35217 -1.12831 3.74864
lowerneck -21.1647 -4.2329 -12.007
upperneck 21.6029 -5.10483 11.956
head 11.159 -1.8816 5.63393
lclavicle 1.53584e-14 7.16612e-15 -1.82085e-30
lhumerus -21.2261 -13.031 86.3711
lradius 23.1153 -0 0
lwrist -0.609785 0 0
lhand -14.2373 -23.9049 0.0383155
lfingers 7.12502 -0 0
lthumb 11.8985 5.70302 0.0291259
rclavicle 1.53584e-14 7.16612e-15 -1.82085e-30
rhumerus -47.1202 7.77556 -84.1482
rradius 41.3115 -0 0
rwrist -23.2333 0 0
rhand -29.5283 -21.2001 -0.00664467
rfingers 7.12502 -0 0
rthumb -2.86193 -51.1618 -0.0063306
276
root 9.98837 16.7701 3.57168 6.30728 -1.89362 2.14014
lfemur -17.7281 5.82098 -28.784
ltibia 28.7481 -0 0
lfoot -17.7879 5.34621 0.11948
ltoes -2.57036 0 0
rfemur -23.4761 0.00651752 16.5049
rtibia 44.2759 -0 0
rfoot -13.7007 -9.12994 0.943771
rtoes -22.3728 0 0
lowerback -5.36906 -1.89973 -3.49227
upperback -0.840536 -2.36827 1.98852
thorax 2.44408 -1.22998 3.80187
lowerneck -21.2452 -4.17777 -11.9424
upperneck 21.7373 -5.02674 11.8685
head 11.2066 -1.84917 5.60657
lclavicle 1.69516e-14 7.59909e-15 -1.69615e-30
lhumerus -20.3198 -13.4356 86.31
lradius 23.3226 -0 0
lwrist -0.248377 0 0
lhand -14.4935 -23.9651 0.0358647
lfingers 7.12502 -0 0
lthumb 11.6516 5.66051 0.027578
rclavicle 1.69516e-14 7.59909e-15 -1.69615e-30
rhumerus -47.0848 7.769 -84.0173
rradius 41.3633 -0 0
rwrist -23.2818 0 0
rhand -29.5591 -21.1969 -0.00551611
rfingers 7.12502 -0 0
rthumb -2.89161 -51.158 -0.00525041
277
root 10.0016 16.784 3.66447 6.18438 -1.67375 2.26049
lfemur -16.6631 5.6968 -28.9131
ltibia 28.0924 -0 0
lfoot -18.0859 5.34321 0.118083
ltoes -2.76331 0 0
rfemur -24.7558 -0.0401547 16.4619
rtibia 44.6366 -0 0
rfoot -14.6125 -9.57763 0.855874
rtoes -22.574 0 0
lowerback -5.33883 -2.04633 -3.5832
upperback -0.754021 -2.56062 2.00214
thorax 2.53384 -1.32957 3.85372
lowerneck -21.3214 -4.12484 -11.8808
upperneck 21.8663 -4.95182 11.7851
head 11.2523 -1.81813 5.5805
lclavicle 1.85065e-14 8.00114e-15 -1.5602e-30
lhumerus -19.4425 -13.842 86.2534
lradius 23.5333 -0 0
lwrist 0.107185 0 0
lhand -14.7367 -24.024 0.0331696
lfingers 7.12502 -0 0
lthumb 11.4173 5.61838 0.0258234
rclavicle 1.85065e-14 8.00114e-15 -1.5602e-30
rhumerus -47.0521 7.76155 -83.8897
rradius 41.4066 -0 0
rwrist -23.3235 0 0
rhand -29.5881 -21.1963 -0.00443766
rfingers 7.12502 -0 0
rthumb -2.91966 -51.157 -0.00421828
278
root 10.0137 16.797 3.74127 6.06683 -1.4538 2.37625
lfemur -15.6056 5.58211 -29.0327
ltibia 27.4405 -0 0
lfoot -18.3589 5.3338 0.115456
ltoes -2.95834 0 0
rfemur -26.0015 -0.085058 16.4218
rtibia 44.9808 -0 0
rfoot -15.4842 -10.0002 0.764459
rtoes -22.7653 0 0
lowerback -5.31132 -2.18937 -3.67194
upperback -0.671116 -2.74832 2.01522
thorax 2.62112 -1.42678 3.90402
lowerneck -21.393 -4.07431 -11.8224
upperneck 21.9897 -4.88039 11.7061
head 11.2957 -1.78862 5.55583
lclavicle 2.0017e-14 8.36933e-15 -1.41513e-30
lhumerus -18.5975 -14.2499 86.2021
lradius 23.7472 -0 0
lwrist 0.45547 0 0
lhand -14.9655 -24.0815 0.030268
lfingers 7.12502 -0 0
lthumb 11.1968 5.57674 0.0238819
rclavicle 2.0017e-14 8.36933e-15 -1.41513e-30
rhumerus -47.0226 7.75306 -83.766
rradius 41.4402 -0 0
rwrist -23.3579 0 0
rhand -29.6152 -21.1986 -0.00342479
rfingers 7.12502 -0 0
rthumb -2.94578 -51.1588 -0.0032491
279
root 10.0246 16.8092 3.80114 5.95515 -1.23433 2.48712
lfemur -14.5576 5.47751 -29.1416
ltibia 26.7941 -0 0
lfoot -18.6047 5.3174 0.111477
ltoes -3.1548 0 0
rfemur -27.2092 -0.128022 16.3845
rtibia 45.3078 -0 0
rfoot -16.3113 -10.3956 0.671028
rtoes -22.9461 0 0
lowerback -5.28678 -2.32846 -3.75829
upperback -0.592228 -2.93083 2.02769
thorax 2.70558 -1.52132 3.95264
lowerneck -21.4596 -4.0264 -11.7674
upperneck 22.107 -4.81277 11.6319
head 11.3369 -1.76076 5.53268
lclavicle 2.14769e-14 8.70072e-15 -1.26321e-30
lhumerus -17.7881 -14.6589 86.157
lradius 23.964 -0 0
lwrist 0.795051 0 0
lhand -15.1786 -24.1373 0.0272013
lfingers 7.12502 -0 0
lthumb 10.9916 5.5357 0.0217756
rclavicle 2.14769e-14 8.70072e-15 -1.26321e-30
rhumerus -46.997 7.74341 -83.6466
rradius 41.4632 -0 0
rwrist -23.3842 0 0
rhand -29.6399 -21.2035 -0.00249266
rfingers 7.12502 -0 0
rthumb -2.96971 -51.1633 -0.00235746
280
root 10.0342 16.8205 3.84317 5.84981 -1.0159 2.59281
lfemur -13.521 5.38357 -29.239
ltibia 26.1548 -0 0
lfoot -18.821 5.29341 0.10603
ltoes -3.35209 0 0
rfemur -28.3749 -0.168886 16.3497
rtibia 45.6165 -0 0
rfoot -17.0892 -10.762 0.57714
rtoes -23.1157 0 0
lowerback -5.26548 -2.46318 -3.84206
upperback -0.517763 -3.10757 2.03951
thorax 2.7869 -1.6129 3.99944
lowerneck -21.5209 -3.98132 -11.7162
upperneck 22.2178 -4.74928 11.5628
head 11.3756 -1.73466 5.51117
lclavicle 2.28799e-14 8.99236e-15 -1.10688e-30
lhumerus -17.0177 -15.0687 86.1194
lradius 24.1833 -0 0
lwrist 1.1245 0 0
lhand -15.3744 -24.1911 0.024014
lfingers 7.12502 -0 0
lthumb 10.8029 5.49539 0.0195292
rclavicle 2.28799e-14 8.99236e-15 -1.10688e-30
rhumerus -46.9758 7.73246 -83.5323
rradius 41.4744 -0 0
rwrist -23.4018 0 0
rhand -29.6622 -21.2111 -0.00165604
rfingers 7.12502 -0 0
rthumb -2.99116 -51.1705 -0.00155757
281
root 10.0425 16.8307 3.86641 5.75131 -0.799078 2.69305
lfemur -12.4977 5.30083 -29.3237
ltibia 25.5242 -0 0
lfoot -19.0056 5.26124 0.0990065
ltoes -3.54959 0 0
rfemur -29.4946 -0.207497 16.3171
rtibia 45.906 -0 0
rfoot -17.8137 -11.0974 0.484397
rtoes -23.2734 0 0
lowerback -5.24766 -2.59314 -3.92308
upperback -0.448128 -3.27802 2.05062
thorax 2.86475 -1.70121 4.04426
lowerneck -21.5766 -3.93927 -11.669
upperneck 22.3217 -4.69024 11.4991
head 11.4117 -1.71046 5.49142
lclavicle 2.42198e-14 9.24132e-15 -9.48645e-31
lhumerus -16.2897 -15.4788 86.0902
lradius 24.4049 -0 0
lwrist 1.44238 0 0
lhand -15.5517 -24.2428 0.0207527
lfingers 7.12502 -0 0
lthumb 10.632 5.45591 0.0171692
rclavicle 2.42198e-14 9.24132e-15 -9.48645e-31
rhumerus -46.9597 7.72008 -83.4235
rradius 41.4729 -0 0
rwrist -23.4099 0 0
rhand -29.6815 -21.2213 -0.000929259
rfingers 7.12502 -0 0
rthumb -3.00985 -51.1804 -0.000863234
